<?xml version="1.0" standalone="no"?>
<!DOCTYPE svg PUBLIC "-//W3C//DTD SVG 20010904//EN"
 "http://www.w3.org/TR/2001/REC-SVG-20010904/DTD/svg10.dtd">
<svg version="1.0" xmlns="http://www.w3.org/2000/svg"
 width="388.000000pt" height="336.000000pt" viewBox="0 0 388.000000 336.000000"
 preserveAspectRatio="xMidYMid meet">
<metadata>
Created by potrace 1.16, written by Peter Selinger 2001-2019
</metadata>
<g transform="translate(0.000000,336.000000) scale(0.100000,-0.100000)"
fill="#000000" stroke="none">
<path d="M1288 3260 c-43 -11 -101 -31 -130 -46 -62 -31 -167 -135 -256 -252
-94 -123 -144 -149 -340 -176 -125 -18 -176 -34 -236 -75 -59 -41 -104 -94
-135 -161 -23 -48 -26 -68 -26 -160 0 -88 4 -113 23 -155 63 -138 153 -171
502 -185 419 -17 665 -59 775 -133 47 -32 105 -90 105 -105 0 -12 -12 -14 -57
-9 -32 3 -114 11 -183 18 -232 22 -895 -6 -960 -41 -10 -6 -28 -10 -39 -10
-40 0 -201 -103 -201 -128 0 -5 -6 -15 -13 -21 -16 -13 -49 -80 -67 -135 -7
-24 -10 -59 -6 -95 21 -173 188 -332 383 -364 38 -6 69 -11 71 -12 1 -1 -7
-37 -18 -80 -24 -93 -27 -254 -6 -330 37 -138 128 -253 244 -308 84 -40 205
-49 298 -22 266 77 538 361 739 770 99 201 145 362 145 512 0 103 -28 118
-260 133 -119 7 -293 -2 -390 -21 -66 -13 -178 -48 -184 -58 -3 -4 32 -1 76 7
57 9 103 11 152 5 l71 -8 -60 -34 c-143 -81 -275 -251 -334 -430 -29 -88 -26
-106 7 -46 99 179 260 338 420 412 102 48 180 71 281 85 104 13 138 7 147 -27
16 -63 -74 -361 -161 -535 -127 -253 -339 -478 -527 -559 -164 -70 -322 -43
-423 72 -69 79 -89 139 -89 272 -1 121 5 146 67 278 53 115 48 121 -71 82
-200 -68 -367 -14 -442 141 -19 39 -24 66 -24 129 -1 72 2 85 29 127 17 27 33
48 37 48 3 0 20 11 36 24 16 14 47 32 70 40 23 9 60 23 83 31 22 9 104 25 182
38 127 19 180 22 497 22 270 0 398 -5 533 -19 168 -17 180 -17 204 -1 25 17
26 20 20 94 -30 367 -329 696 -771 847 -107 37 -101 28 19 -27 214 -99 346
-194 450 -324 59 -73 115 -178 140 -261 22 -71 19 -79 -17 -45 -18 17 -62 46
-98 65 -63 33 -200 80 -208 71 -2 -2 19 -15 47 -28 105 -51 237 -172 290 -266
l23 -42 -88 65 c-214 158 -375 208 -759 235 -223 15 -386 66 -448 140 -66 79
-75 202 -21 301 39 72 83 99 181 111 224 28 300 73 408 239 100 155 209 235
358 260 169 30 338 -55 435 -217 83 -140 116 -317 116 -638 1 -121 -2 -267 -6
-325 l-6 -105 13 70 c51 270 44 701 -15 927 -22 83 -78 184 -132 237 -120 119
-281 157 -470 111z"/>
<path d="M2701 3065 c-131 -29 -290 -125 -407 -246 -156 -162 -220 -318 -293
-714 -17 -87 -29 -161 -27 -163 2 -2 20 66 40 150 103 435 214 629 452 790 79
54 156 80 250 86 93 5 135 -5 209 -53 101 -64 137 -158 102 -264 -27 -82 -21
-87 101 -96 183 -13 308 -49 381 -110 54 -46 91 -136 91 -221 0 -85 -18 -135
-68 -187 -97 -102 -202 -116 -522 -72 -164 23 -219 26 -345 22 -171 -5 -261
-25 -385 -85 -41 -20 -79 -38 -85 -40 -5 -3 10 17 35 43 88 93 243 176 387
209 155 35 155 35 28 32 -126 -4 -206 -22 -307 -71 -27 -13 -48 -20 -48 -16 0
12 108 112 170 158 76 56 197 116 321 158 76 26 92 34 59 29 -154 -20 -346
-97 -480 -192 -126 -90 -271 -252 -364 -406 -67 -112 -45 -150 121 -207 216
-74 365 -255 443 -539 17 -62 18 -63 19 -25 1 55 -24 188 -48 258 -33 94 -80
167 -153 240 -37 37 -66 67 -63 67 2 0 29 -9 60 -21 68 -25 142 -83 186 -144
42 -59 49 -43 13 30 -46 93 -152 180 -284 231 -32 13 -27 14 70 9 331 -18 592
-71 768 -157 86 -42 200 -123 252 -180 142 -155 94 -338 -115 -438 -100 -48
-181 -62 -358 -64 -186 -1 -183 1 -218 -120 -45 -154 -62 -203 -90 -263 -85
-179 -249 -293 -421 -293 -117 0 -215 56 -266 153 -23 45 -27 64 -26 132 1 72
6 92 51 205 51 126 84 236 103 344 15 89 12 267 -6 349 -16 76 -63 211 -70
204 -3 -2 5 -47 17 -98 16 -67 22 -128 22 -214 1 -174 -21 -256 -167 -636 -89
-232 -96 -351 -27 -446 61 -84 151 -124 295 -131 122 -6 185 7 296 60 136 65
221 161 322 362 104 207 120 222 265 247 230 38 379 87 489 161 220 147 249
329 80 501 -88 89 -203 157 -403 236 -186 73 -342 105 -593 121 -165 10 -253
23 -279 39 -35 22 22 68 129 102 54 18 90 21 205 21 118 0 177 -6 380 -42 285
-49 381 -58 456 -40 132 31 258 130 315 245 25 53 29 71 29 150 0 74 -5 98
-24 137 -58 118 -137 172 -359 244 -155 51 -216 82 -236 122 -7 15 -26 64 -41
110 -67 205 -213 284 -434 237z"/>
<path d="M1581 662 c-34 -52 -47 -87 -62 -157 -27 -133 -49 -297 -56 -408 l-6
-97 55 0 55 0 6 153 c7 164 18 287 43 460 9 60 14 111 12 113 -3 2 -24 -27
-47 -64z"/>
</g>
</svg>
